<svg version="1.1" xmlns="http://www.w3.org/2000/svg" xmlns:xlink="http://www.w3.org/1999/xlink" width="724.3775" height="568.86669" viewBox="0,0,724.3775,568.86669"><g transform="translate(54.8775,149.21139)"><g data-paper-data="{&quot;isPaintingLayer&quot;:true}" fill-rule="nonzero" stroke="none" stroke-width="0.5" stroke-linecap="butt" stroke-linejoin="miter" stroke-miterlimit="10" stroke-dasharray="" stroke-dashoffset="0" style="mix-blend-mode: normal"><path d="M6.4375,125.78125c2.08799,-2.92418 4.25291,-4.62969 6.59337,-5.74348c3.44481,-2.23787 7.55516,-3.53777 11.96913,-3.53777c0.49286,0 0.98195,0.01621 1.46674,0.04812c0.0585,-0.01589 0.1171,-0.03193 0.17582,-0.04812c9.72841,-2.68232 25.19312,-8.28869 33.40654,-11.51816c23.72024,-9.32667 48.55773,-22.11514 74.38039,-25.33115c27.5875,-3.43581 54.92809,-3.73069 82.66914,-2.12323c6.92054,0.40101 17.74366,3.56608 21.88565,4.32909c19.70236,3.62945 38.92023,7.84107 58.54795,12.11536c7.17939,1.56344 17.982,6.25908 22.07424,7.53178c16.5117,5.13518 22.71272,6.43808 37.10788,11.0444c15.17618,4.85623 29.50866,10.3333 44.10366,16.79645c10.1055,4.47505 19.33141,10.51942 29.56545,14.7946c14.41886,6.02336 35.61654,6.29239 35.61654,27.36086c0,4.39169 -1.25861,8.90569 -3.4375,12.71875c-9.80599,17.16048 -37.21729,5.9639 -49.78178,0.25636c-15.22102,-6.91429 -29.68499,-15.22063 -45.14277,-21.62016c-19.3557,-8.01327 -40.52716,-13.49997 -60.5698,-19.16973c-6.74598,-1.90833 -13.56339,-5.13536 -19.99279,-6.95025c-17.88934,-5.04982 -37.30407,-8.57471 -55.50653,-11.50417c-6.22734,-1.00222 -11.08924,-2.89937 -18.40179,-3.84495c-25.97486,-3.35881 -61.77974,-1.97528 -87.15675,5.30078c-24.71763,7.087 -48.25532,18.73328 -72.49193,27.48885c-9.24959,3.34144 -30.50518,11.35864 -40.26628,2.9286c-1.26196,-0.79856 -2.43707,-1.72198 -3.50796,-2.7529c-4.15742,-4.00224 -6.74411,-9.62462 -6.74411,-15.85115c0,-2.76017 0.50831,-5.40161 1.43641,-7.83583c0.39131,-1.75813 0.96395,-3.43044 2.00109,-4.88292z" fill="#7930e3"/><path d="M88,-60.5c0,-12.15027 9.84973,-22 22,-22c12.15027,0 22,9.84973 22,22c0,12.15026 -9.84973,22 -22,22c-12.15027,0 -22,-9.84974 -22,-22z" fill="#9765e3"/><path d="M492,73.5c0.38808,15.17055 -0.02302,26.36149 -11.70162,36.44756c-3.1489,2.7195 -8.39911,3.48233 -12.29838,3.55244c-1.6664,0.02996 -3.33426,0.05553 -5,0c-1.00167,-0.03339 -2.96485,-1.20161 -3,-0.2c-0.53003,15.10575 1.18046,33.10966 -16.80391,38.83196c-9.05413,2.88086 -21.28486,-1.40274 -26.75859,-8.91321c-0.74949,-1.02837 -1.5897,-4.68754 -2.26041,-5.65438c-0.9817,-1.41515 -11.67542,-4.06298 -13.17709,-4.81437c-5.95661,-2.9805 -12.4839,-3.43554 -18.95701,-5.37896c-6.59024,-1.97859 -12.80917,-5.10535 -19.25453,-7.38006c-5.04041,-1.77887 -10.8972,-2.76815 -16.1079,-4.07409c-6.56358,-1.645 -13.40072,-1.82168 -19.63757,-3.54585c-6.02272,-1.66497 -12.47083,-3.75122 -18.86376,-3.87104c-11.0578,-0.20726 -22.13761,0.63295 -33.17922,0c-3.86716,0 -7.50127,-0.99778 -10.65893,-2.74995c-3.92644,-1.80629 -7.35701,-4.50903 -8.34227,-8.15451c-0.49753,-0.85019 -0.93963,-1.73676 -1.32135,-2.65476c-9.77604,1.45736 -19.57114,2.88978 -29.41396,4.31583c-6.57132,0.95207 -17.95455,1.04263 -21.07517,1.2113c-19.89444,1.07537 -39.64183,1.52356 -59.54182,2.03209c-11.23894,0.28721 -22.48963,2.96665 -33.6465,3c-14.72634,0.04402 -29.45315,-0.09906 -44.17922,0c-1.07361,0.00722 -12.43863,3.17812 -13.14139,3.63025c-1.88673,1.21384 -3.51808,2.85164 -5.56997,3.82765c-6.71773,3.19536 -13.83172,5.25467 -20.63497,8.40164c-4.57286,2.11526 -10.00519,5.07287 -15.24399,4.14047c-0.0021,-0.00038 -0.00419,-0.00074 -0.00629,-0.00112c-0.07463,0.00074 -0.14935,0.00112 -0.22415,0.00112c-4.14224,0 -8.01709,-1.14478 -11.32545,-3.13523c-3.6034,-1.6202 -6.66559,-4.03162 -7.67575,-7.76924c-1.90623,-3.25741 -2.9988,-7.04888 -2.9988,-11.09553c0,-2.76017 0.50831,-5.40161 1.43641,-7.83583c0.39131,-1.75813 0.96395,-3.43044 2.00109,-4.88292c1.39281,-1.9506 3.4056,-3.665 5.79406,-5.19891c1.28293,-0.91587 2.66836,-1.6974 4.13577,-2.32403c7.92106,-3.94698 17.91309,-6.61863 23.95329,-9.38855c1.95294,-0.89558 3.56837,-2.87557 5.56997,-3.82765c7.84457,-3.73135 23.02677,-8.50679 32.10941,-8.54211c14.87667,-0.05786 29.76064,0.45913 44.63033,0c5.15571,-0.15919 10.2272,-1.37636 15.36377,-1.84796c31.47317,-2.88961 63.30789,-0.83422 94.79088,-4.06591c54.07769,-5.55102 107.14616,-18.48683 160.81873,-26.82239c33.83855,-5.25526 45.74499,-4.91996 79.65213,-9.09904c8.42486,-1.03837 22.19816,-3.73056 33.22244,-5.01969c8.30361,-0.97099 16.66416,-1.52874 24.91528,-2.87484c7.69777,-1.25582 15.2871,-3.66997 22.98968,-4.97083c28.26733,-4.77396 56.63447,-8.89205 85.11756,-12.14989c15.40709,-1.76223 33.67688,-6.43955 38.072,15.536c5.93015,29.65075 -32.1199,27.81389 -49.73145,30.13201c-6.91643,0.91037 -13.8913,1.99984 -20.80038,2.96441c-7.21175,1.00682 -14.5466,1.87804 -21.74559,2.97237c-7.73351,1.17559 -15.46523,2.38557 -23.14776,3.85796c-3.49461,0.66976 -16.71031,4.29702 -24.62586,5.2428c-11.44336,1.3673 -23.70795,3.29557 -35.76186,5.03303c1.94497,4.39943 3.13655,9.06288 3.24013,13.11197z" fill="#9765e3"/><path d="M94,-78.5c0,-12.15027 9.84973,-22 22,-22c12.15026,0 22,9.84973 22,22c0,12.15027 -9.84974,22 -22,22c-12.15027,0 -22,-9.84973 -22,-22z" fill="#e3e3e3"/><path d="M272.84582,62.99583c-5.56903,1.29199 -11.02619,3.49198 -16.84582,3.50417c-33.60711,0.0704 -67.21749,-0.45669 -100.82157,0c-2.7385,0.03722 -7.70609,1.66515 -10.84265,2.34314c-6.09303,1.31705 -12.45696,1.64701 -18.62746,2.65686c-5.45001,0.89194 -10.72389,3.43869 -16.12112,4.63196c-3.56357,0.78786 -10.60869,0.19385 -13.0171,0.36804c-3.23853,0.23423 -6.18539,1.95897 -9.57011,2c-8.30566,0.10068 -16.61786,-0.29776 -24.91879,0c-1.55132,0.05565 -16.27423,4.17631 -18.71348,4.83928c-2.33865,1.41419 -4.96185,2.4052 -7.76347,2.86692c-1.10704,0.26703 -2.17131,0.40092 -3.07764,0.28763c-0.17504,0.00411 -0.35059,0.00618 -0.52663,0.00618c-1.03214,0 -2.0477,-0.07108 -3.04201,-0.20861c-0.7039,-0.09736 -1.39716,-0.22802 -2.07815,-0.39034c-0.18097,0.63963 -0.49377,1.0898 -1.46108,1.63474c-3.92896,6.0004 -10.71096,9.96421 -18.41876,9.96421c-2.62463,1.31257 -6.77038,-0.28975 -10.47776,-2.65054c-2.54733,-1.38229 -4.7911,-3.25294 -6.60571,-5.48633c-0.29181,-0.33137 -0.54621,-0.64664 -0.7576,-0.93961c-2.79216,-3.86982 -4.22689,-7.95737 -4.73163,-12.55544c-2.22251,-20.24657 16.22149,-34.28241 33.06041,-40.96845c4.81596,-1.91222 10.30245,-2.95067 15.00879,-4.42184c3.57131,-1.11636 13.81062,-5.28954 20.34886,-6.58194c15.26247,-3.01692 30.24633,-6.32572 45.78233,-7.35301c13.35048,-0.88278 19.8693,-0.28198 33.15384,-1.04284c19.05709,-1.09147 37.95257,-4.02022 57.06218,-4.96959c7.41514,-0.36838 17.96579,0.06736 22.74902,-0.03041c64.54563,-1.31932 129.11644,-0.67807 193.67475,-1c16.55801,-0.08257 34.56428,-2.92141 50.52898,-7.99498c8.053,-2.55924 22.18201,-9.72114 30.43337,-9.1421c8.82923,0.6196 14.21031,3.82385 18.44756,12.29838c5.6768,11.3536 1.73358,20.25584 -6.91783,27.67134c-3.29171,2.82147 -7.23792,3.45854 -11.0809,4.92478c-10.27512,3.92032 -20.56732,7.41841 -31.36411,9.81536c-4.53237,1.00621 -12.8386,2.44178 -16.37907,3.07236c-5.16828,0.92051 -10.4249,1.62182 -15.65348,2.16879c-40.34062,4.2201 -80.97126,3.23743 -121.60425,2.18039c-7.82157,5.77724 -20.34532,6.53266 -28.83193,8.50151z" fill="#e3e3e3"/><path d="M152,-94.5c0,-12.15027 9.84974,-22 22,-22c12.15026,0 22,9.84973 22,22c0,12.15027 -9.84974,22 -22,22c-12.15026,0 -22,-9.84973 -22,-22z" fill="#5c00e3"/><path d="M-15.35,160.7c0.46468,-1.07971 1.08002,-2.07343 1.78666,-3.01204c1.47263,-2.3095 3.3644,-4.32576 5.56816,-5.94158c1.09498,-1.14087 2.50287,-1.93504 3.79517,-2.84638c13.90233,-9.80397 32.87565,-10.61278 48.88729,-13.18957c21.64107,-3.48274 43.35718,-7.18085 64.99816,-10.78321c8.71486,-1.45068 17.69141,-0.16322 26.42419,-1.98714c5.33258,-1.11376 10.25926,-3.85675 15.57581,-5.01286c18.29649,-3.97866 36.47945,-7.32391 55.13613,-8.42723c11.47326,-0.6785 23.00256,-2.35577 34.61593,-0.65625c19.30493,2.82511 34.64559,22.86396 52.60845,28.74066c8.34787,2.73108 16.6154,5.09647 24.91106,8.04456c1.99849,0.71022 4.30583,2.41881 6.23648,2.87104c3.52396,0.82542 7.17135,0.05285 10.76352,1.12896c4.54072,1.36027 9.82428,3.62583 14.75131,3.87104c3.90889,0.19454 6.93458,-0.2939 10.72917,0.34375c2.15818,0.36266 4.19699,1.2509 6.26334,1.92633c6.58413,2.15217 13.70673,2.28525 20.29103,4.72992c4.24637,1.57663 10.01293,0.88036 14.44563,1.34375c2.56077,0.26771 3.75277,1.14353 6.13261,1.65625c9.57835,2.06358 21.96417,2.46592 31.25615,2c0.58186,-0.02918 1.12723,-2.55559 1.30271,-2.95701c1.09074,-2.4951 3.73228,-6.28199 3.87104,-9.03486c0.56473,-11.20441 3.9561,-21.27301 8.62338,-31.4484c1.93419,-4.21683 2.60351,-7.61639 6.59296,-11.08263c12.80408,-11.12485 32.95596,-4.40756 36.52431,12.17477c2.45416,11.40464 -6.62147,19.93103 -7.74066,30.58495c-0.30798,2.93181 0.15881,5.21001 -0.34375,8.20068c-1.79956,10.70901 -8.55845,22.91893 -14.88072,31.56028c-3.66652,5.01144 -6.404,9.45437 -11.86026,12.83275c-3.80287,2.35464 -9.3178,3.19465 -13.68482,3.16947c-14.47525,-0.08347 -19.65042,0.08193 -31.05122,-1c-7.42131,-0.70428 -14.41844,-1.73379 -21.74933,-3c-5.21495,-0.90073 -10.64733,-0.46656 -15.86739,-1.34375c-2.92722,-0.49189 -5.53599,-2.05873 -8.24117,-2.89883c-2.81289,-0.87355 -15.34411,-3.3929 -18.3132,-3.75742c-6.50635,-0.7988 -12.02706,-1.03109 -18.62491,-2.29934c-2.99919,-0.5765 -6.05394,-2.25021 -8.95333,-2.70066c-2.62063,-0.40715 -5.31641,0.38256 -7.95531,0.11867c-5.59159,-0.55916 -9.07769,-3.91172 -13.91485,-5.74206c-8.30349,-3.14196 -17.01828,-4.81783 -25.22595,-8.15542c-7.15415,-2.90918 -14.11555,-6.23176 -20.65268,-10.35635c-4.38435,-2.7663 -8.04362,-6.1398 -12.59615,-8.7635c-3.09346,-1.7828 -8.01559,-7.06297 -11.6234,-7.10135c-5.76071,-0.06127 -11.5244,-0.16372 -17.28311,0c-17.69371,0.50303 -36.74427,3.78775 -53.88323,8.17665c-6.23412,1.59642 -12.11276,4.70537 -18.56643,5.65347c-9.54154,1.40174 -18.00623,1.73895 -27.55034,2.16988c-8.35636,0.37731 -16.54341,2.49002 -24.81395,3.74272c-17.0271,2.57901 -33.97135,5.50593 -50.96846,8.03928c-5.91378,0.88143 -14.39913,2.47825 -20.00636,5.17576c-0.17675,0.08503 -0.35337,0.17368 -0.5299,0.26548c-2.34389,2.14807 -5.15473,3.79485 -8.26268,4.77052c-1.54463,0.65772 -3.14809,1.05445 -4.84449,0.93746c-0.57819,0.04557 -1.16268,0.06879 -1.75258,0.06879c-0.65242,0 -1.29822,-0.0284 -1.93621,-0.08403c-10.40686,-0.90745 -18.7378,-9.0605 -19.91993,-19.38629c-1.10647,-1.53303 -0.48772,-2.19653 -0.09615,-3.99014c0.10198,-1.55613 0.36577,-3.06808 0.77468,-4.51921c0.19042,-0.96755 0.43864,-1.91653 0.82761,-2.82033z" fill="#5c00e3"/><path d="M230,-61.5c0,-12.15027 9.84974,-22 22,-22c12.15026,0 22,9.84973 22,22c0,12.15026 -9.84974,22 -22,22c-12.15026,0 -22,-9.84974 -22,-22z" fill="#5d349b"/><path d="M184.4375,142.78125c2.05632,-2.87982 4.69132,-4.9388 7.65155,-6.38927c3.21571,-1.84017 6.9405,-2.89198 10.91095,-2.89198c8.42252,-0.86598 17.21373,-0.7024 25,2.75c5.71128,2.53236 11.13639,9.37794 15.35741,13.88645c0.52369,0.55935 1.50423,0.29348 2.25297,0.45632c2.86645,0.62341 5.86413,1.1649 8.38962,2.65723c7.62002,4.50274 11,9.77519 11,19.25c0,1.08834 -0.0773,2.18419 -0.22674,3.27502c1.22992,2.71394 2.27856,5.43305 3.31338,7.70475c3.32707,7.30381 6.73129,14.81435 8.56961,22.58273c1.1415,4.82376 0.67308,9.79808 2.0751,14.74043c1.3333,4.7001 3.11456,9.43732 3.9249,14.25957c1.01024,6.01185 0.85683,12.76774 3.43039,18.41727c3.23645,7.10472 7.9415,13.19287 13.46972,18.46388c2.65722,2.53359 4.34249,7.51521 8.01376,7.55635c9.3535,0.10483 21.50566,1.58352 30.61993,-3.25338c2.68104,-1.42281 3.27178,-13.28178 3.90273,-15.35699c1.11483,-3.66672 1.94631,-7.96778 3.65724,-11.38963c2.05254,-4.10509 5.40745,-7.68879 7.22751,-11.87564c1.91679,-4.40936 3.38029,-8.66568 6.57493,-12.42273c5.96337,-7.01323 13.1886,-9.59461 21.0374,-13.19576c1.88016,-0.86265 3.53217,-2.81687 5.41017,-3.75586c7.21139,-3.6057 20.72552,-5.30015 26.84454,-6.88822c6.53971,-1.69725 11.6139,-3.65605 18.50738,-4.96785c11.81829,-2.24898 33.05397,-16.21 45.15931,-6.59693c3.43919,2.73112 6.28422,6.45482 7.91526,10.53241c6.29278,15.73196 -4.33225,25.49118 -17.25589,30.59708c-20.14174,7.95764 -41.07508,11.55049 -61.81606,17.66196c-0.95142,0.28035 -1.64592,1.11246 -2.51584,1.58895c-1.6021,0.87754 -3.20486,1.75568 -4.8387,2.5726c-1.05311,0.52656 -3.55024,0.67454 -3.96875,1.53605c-2.14121,4.4077 -5.36756,8.33166 -7.61302,12.74768c-1.73122,3.4047 -1.15177,7.27254 -1.76198,10.90377c-0.98277,5.84836 -4.14321,13.13795 -6.97885,18.4012c-2.35222,4.36598 -5.20113,10.29098 -8.89375,13.6842c-5.58568,5.13279 -11.04062,6.38214 -17.96921,8.39566c-2.52197,0.73291 -4.63216,2.20109 -7.20407,2.98868c-13.5291,4.143 -34.6698,4.46956 -46.56738,0.9638c-11.47607,-3.38156 -17.82237,-9.04501 -26.50103,-17.21638c-4.79469,-4.51443 -9.96409,-9.07256 -13.98951,-14.35628c-9.91752,-13.0176 -13.74859,-28.1708 -17.18439,-43.71117c-2.62816,-11.88738 -4.59665,-24.03725 -8.16451,-35.63621c-0.7864,-2.55656 -0.79225,-6.91706 -2.80028,-8.951c-1.13649,-1.15115 -3.23187,-0.17556 -4.84075,-0.34375c-3.25629,-0.34042 -4.35322,-1.5258 -7.63757,-2.1579c-7.5917,-1.46108 -16.31239,-1.01618 -23.73294,-3.35416c-3.48429,-1.09779 -7.21315,-4.0993 -10.7621,-4.14418c-14.74931,-0.18651 -29.50206,-0.1793 -44.25146,0c-9.1453,0.11118 -18.43798,2.51479 -27.22142,4.87104c-4.15926,1.11576 -8.96579,1.25503 -12.90575,2.9544c-2.2147,0.95523 -4.24206,2.43953 -6.58564,3.12703c-4.91028,1.44044 -9.99277,1.03462 -14.8955,2.04754c-4.52572,0.93503 -8.68903,3.15132 -13.05177,4.67545c-3.93947,1.37626 -8.6382,1.79478 -12.46078,2.74872c-6.63592,1.65602 -13.25321,3.40405 -19.79532,5.39872c-0.8036,0.24501 -1.6831,0.53585 -2.62082,0.84814c-3.37652,2.10972 -7.36659,3.32897 -11.64143,3.32897c-0.60087,0 -1.19611,-0.02409 -1.78481,-0.07136c-11.31556,-0.90848 -20.21518,-10.37925 -20.21518,-21.92864c0,-8.9865 5.38809,-16.71456 13.10994,-20.12982c12.13562,-7.04691 30.01987,-8.69805 41.93959,-12.11577c5.03955,-1.44499 10.81668,-4.10005 15.99347,-5.62545c3.59261,-1.0586 8.19833,-0.02758 11.44769,-1.27956c10.24814,-3.94863 27.05379,-9.35382 38.07182,-10.50565c22.84515,-2.38824 44.08614,-4.38273 67.65014,-2.5652c0.07163,-0.20621 0.14623,-0.41101 0.22377,-0.61437c0.3913,-1.75813 0.96395,-3.43044 2.00109,-4.88292z" fill="#5d349b"/><path d="M119,-6.5c0,-12.15026 9.84974,-22 22,-22c12.15026,0 22,9.84974 22,22c0,12.15027 -9.84974,22 -22,22c-12.15026,0 -22,-9.84974 -22,-22z" fill="#9a57ff"/><path d="M270.22983,159.36292c10.46555,0 21.96506,0.17594 32.43054,0.13708c3.11703,-0.01157 7.10662,-0.36573 10.17326,0.61002c1.98038,0.63012 4.22449,1.89043 5.9997,2.85968c6.21989,3.39597 20.67643,6.41487 27.55254,6.5303c21.52006,0.36128 35.36996,-2.85173 53.61413,4.75c2.46424,1.02677 9.56991,8.22404 11.5625,10.53125c2.90576,3.36457 4.51125,13.76971 4.4375,18.48831c-0.00943,0.60376 0.27695,9.18515 -0.34375,11.66794c-2.81531,11.26126 -9.09408,16.53886 -19.82262,19.95248c-5.42942,1.72754 -11.77902,-0.75155 -17.07254,1.20271c-6.60213,2.43739 -13.63173,5.99479 -20.7611,6.40731c-0.4461,0.02581 -0.89937,0.05604 -1.359,0.08948c-0.60656,2.022 -1.13264,4.03042 -1.42293,5.94749c-2.13043,14.06961 -6.29077,30.24939 -20.21807,37.21303c-3.84479,1.92239 -8.54245,2.8093 -12.76956,2.75c-3.44203,-0.04829 -6.89945,-0.43375 -10.32653,-0.10961c-0.66988,0.06336 -1.32538,0.5622 -1.9785,0.40041c-6.01125,-1.48906 -11.46774,-4.86136 -15.48791,-9.57205c-1.62322,-1.90204 -1.65822,-5.73798 -3.31275,-7.77439c-6.63702,-8.1689 -9.0863,-23.54897 -11.23448,-33.78194c-0.81421,-3.87851 -3.46588,-5.92527 -5.14027,-9.16243c-0.77716,-1.50251 -1.13177,-4.44649 -2.18199,-5.74053c-4.98706,-6.14483 -9.25959,-12.83794 -13.34705,-19.67432c-8.31113,-3.14237 -14.22096,-11.1736 -14.22096,-20.58515c0,-8.8005 5.16736,-16.39411 12.63349,-19.91224c3.76139,-2.06081 8.09008,-3.22484 12.59635,-3.22484z" fill="#9a57ff"/><path d="M267,-36.5c0,-0.62304 0.0259,-1.24004 0.07668,-1.84997c-1.93003,0.55351 -3.96874,0.84997 -6.07668,0.84997c-12.15026,0 -22,-9.84974 -22,-22c0,-12.15027 9.84974,-22 22,-22c12.15026,0 22,9.84973 22,22c0,0.62304 -0.0259,1.24004 -0.07668,1.84997c1.93003,-0.55351 3.96874,-0.84997 6.07668,-0.84997c12.15026,0 22,9.84974 22,22c0,12.15026 -9.84974,22 -22,22c-12.15026,0 -22,-9.84974 -22,-22z" fill="#ad76ff"/><path d="M-3.71875,254.0625c-2.60824,-1.8624 -4.70672,-4.44128 -6.25496,-7.4201c-1.80025,-3.05892 -2.88187,-6.59149 -3.01284,-10.36565c-0.87352,-8.78133 2.04952,-17.99006 9.42492,-22.49565c6.24138,-3.81283 12.57541,-5.81358 19.6111,-7.72055c9.81548,-2.6604 19.17865,-7.94079 29.36331,-10.19251c4.46587,-0.98736 9.09329,-0.46665 13.59188,-1.52862c8.14075,-1.92177 16.26484,-3.71677 24.16171,-6.22941c4.00171,-1.27327 8.54843,-0.11526 12.59681,-0.61002c4.46765,-0.546 9.19787,-2.64773 13.64961,-3.63196c7.66715,-1.69512 15.43531,-1.70597 23.20134,-2.36804c2.14677,-0.18302 4.23134,-0.98794 6.38587,-1c19.33303,-0.10817 38.66697,-0.10817 58,0c9.62816,0.05387 17.48353,6.07097 25.92072,9.19207c1.10675,0.40941 2.83374,0.07457 3.91291,0.41795c4.72224,1.50253 9.50206,4.84557 12.72887,8.67123c11.15563,13.22591 4.41743,32.24309 -12.43034,36.83793c-4.8477,1.3221 -21.8245,-4.65766 -27.13216,-6.86918c-1.85142,-0.77142 -4.50366,-4.2372 -6.66107,-4.25c-16.98406,-0.1008 -33.96988,-0.19967 -50.95306,0c-5.80696,0.06827 -20.61578,1.51262 -26.76325,3.17235c-4.00628,1.08164 -8.08557,2.92428 -12.18512,3.4839c-2.57684,0.35176 -5.19451,0.28767 -7.79465,0.34375c-1.04452,0.02253 -1.81364,1.07321 -2.80922,1.38998c-2.23802,0.7121 -5.00693,0.12385 -7.26352,0.61002c-8.40301,1.81036 -16.65456,4.23158 -25.13261,5.65625c-2.65314,0.44584 -5.30445,-0.09571 -7.86739,0.34375c-2.68775,0.46086 -3.98365,2.15144 -6.41755,2.92587c-4.28547,1.36356 -8.41215,2.67822 -12.56528,4.25006c-1.78029,0.67379 -5.73497,1.1139 -7.26712,2.39074c-0.9903,0.82529 -1.73115,1.78297 -2.47879,2.67342c-3.91248,3.57749 -9.12206,5.75992 -14.84136,5.75992c-2.76017,0 -5.40161,-0.50831 -7.83583,-1.43641c-1.75813,-0.3913 -3.43043,-0.96395 -4.88292,-2.00109z" fill="#ad76ff"/><path d="M-11.63195,294.30391c1.35501,-4.43596 3.86454,-7.75882 7.07394,-10.31787c-3.38844,-3.86994 -5.44198,-8.93818 -5.44198,-14.48604c0,-0.79505 0.04218,-1.58024 0.1244,-2.35348c0.01869,-1.6284 -0.00323,-3.26177 0.5332,-4.77639c0.98902,-2.79252 2.60761,-5.18778 4.69006,-7.24773c2.91972,-3.37866 6.85036,-5.85942 11.32183,-6.97221c10.92075,-4.35983 24.70361,-5.60345 33.90102,-6.51564c0.51111,-0.05069 1.02249,-0.09852 1.53411,-0.14373c1.36983,-2.26005 3.41696,-4.23687 6.89538,-6.24083c0.82891,-0.47754 1.92596,-0.91598 3.19546,-1.32549c1.27994,-0.48576 2.61698,-0.85553 3.9983,-1.09645c4.74244,-1.14213 10.28952,-2.09454 13.68042,-3.17245c5.1573,-1.63942 9.28276,-5.46044 14.51545,-7.06284c4.2793,-1.31044 9.05446,-2.06355 13.45491,-3.23098c3.29018,-0.87288 6.21905,-2.85639 9.71797,-3.51803c4.76952,-0.90191 10.09112,-0.7714 14.73666,-2.07367c3.15083,-0.88326 5.90364,-2.57511 9.26334,-2.92633c10.98567,-1.14845 22.35837,1.87196 27.12161,11.16215c4.09883,-0.23546 8.25322,-0.40401 12.60756,-0.5059c7.41018,-0.17339 15.08975,-2.0779 22.47789,-2c13.90682,0.14663 24.97044,0.02151 36.1748,9.12475c1.13034,0.91837 2.85944,0.79449 4.05564,1.62525c4.59116,3.18855 9.13827,7.52728 10.63196,13.05391c0.34689,1.28349 -0.3092,2.65478 -0.23036,3.98199c0.03941,0.66356 0.06033,1.31426 0.06281,1.95212c2.32985,1.42057 4.41444,3.2331 6.0981,5.54323c1.78572,2.45018 1.60126,7.07048 3.45686,9.41861c4.66786,5.90683 9.75731,5.97118 10.27144,15.22555c0.72661,13.07903 -7.96188,24.29243 -21.06097,25.21167c-7.1458,0.50146 -17.74981,-4.21152 -22.75273,-9.35342c-2.75858,-2.8352 -2.86633,-7.0624 -6.80313,-8.68284c-0.97445,-0.40109 -1.90971,-1.09258 -2.96345,-1.10081c-15.48511,-0.12105 -36.94488,-1.64428 -52.97346,4.01396c-5.49197,1.93872 -10.62249,5.45362 -16.11918,7.5476c-4.01,1.52762 -8.34119,1.87551 -12.36254,3.46792c-3.00992,1.1919 -6.45496,2.7617 -9.72992,3.0892c-16.97317,1.69732 -34.05756,3.64094 -51.34699,3.88133c-2.20035,0.0306 -5.16251,1.84314 -7.32714,2.38398c-2.20455,0.55081 -4.72841,0.07229 -6.86193,0.61602c-4.79789,1.22274 -9.31775,3.35861 -14.03235,4.87104c-4.80129,1.54023 -10.93003,2.29622 -15.15594,3.38531c-1.35984,0.35046 -2.95946,0.81711 -4.70616,1.296c-3.02342,1.56417 -6.45599,2.44765 -10.09491,2.44765c-1.04393,0 -2.07088,-0.07271 -3.07605,-0.21334c-10.69405,-1.49618 -18.92395,-10.68032 -18.92395,-21.78666c0,-0.556 0.02063,-1.10719 0.06115,-1.65283c-0.01306,-1.53739 -0.13731,-3.08906 0.30689,-4.54327z" fill="#5c00e3"/><path d="M-8.63195,325.30391c1.0807,-3.53795 3.01909,-6.40831 5.50651,-8.76968c2.54165,-2.73733 5.77179,-4.82649 9.41495,-5.99203c5.7364,-2.53198 12.13892,-4.0385 17.5945,-5.34848c7.52179,-1.80611 15.2249,-2.7544 22.81026,-4.27153c19.46368,-3.89288 36.01697,-7.2267 55.5974,-7.42218c3.14576,-0.03141 6.37735,-1.96209 9.70833,-2c8.91991,-0.10154 17.8417,0.11446 26.76145,0c1.05281,-0.01351 0.58359,-2.0281 0.98855,-3c0.50845,-1.2203 2.02842,-2.39837 2.79914,-3.24111c4.12667,-4.51227 8.73184,-7.35958 15.01336,-8.41514c7.76228,-1.30439 23.03213,-0.3206 26.72918,-0.34375c4.39893,-0.02754 8.54705,-2.58734 13.23375,-2.11867c4.53969,0.45397 10.35411,2.93806 14.47457,4.86867c1.63396,0.76558 4.77881,3.20374 6.73682,3.25c12.75083,0.30126 25.50884,-0.03552 38.26318,0c1.02943,0.00286 2.07536,-0.53833 3.07459,-0.2908c11.0369,2.73397 18.59312,11.37887 19.75741,22.61085c0.06923,0.66791 3.41971,1.67646 4.0067,2.00255c1.00664,0.55923 1.95002,1.22547 2.92086,1.84476c7.13378,4.55052 13.36844,4.63409 20.85081,6.92541c1.61047,0.49317 2.99809,1.80217 4.6791,1.90724c3.73411,0.23338 7.06612,0.06777 10.66754,1.12896c6.05874,1.78528 13.28044,5.27641 19.84949,3.87104c9.76583,-2.0893 11.98516,-13.15028 26.42333,-12.13707c3.32264,0.23317 6.91357,0.61208 9.68497,2.45968c15.94385,10.62923 14.32935,27.96824 0.44745,38.39255c-19.16382,14.39065 -33.31243,17.88795 -56.79976,13.9411c-3.40432,-0.57207 -6.86788,-3.3866 -10.13261,-3.65625c-15.66983,-1.29426 -30.79825,-6.11772 -45.09611,-12.77881c-2.58984,-1.20655 -3.67831,-2.515 -5.96564,-3.90844c-6.19779,-3.77569 -9.36092,-3.59927 -14.8157,-10.01437c-1.81883,-2.13903 -3.28039,-5.16842 -4.78308,-7.56616c-0.16746,-0.26722 -0.28385,-0.72359 -0.59909,-0.73221c-8.72017,-0.23852 -17.44744,0.10127 -26.17028,0c-1.84829,-0.02146 -3.65606,-1.04606 -5.48764,-0.79717c-3.93859,0.53519 -8.2246,2.55516 -12.1978,3.36995c-2.8304,0.58044 -11.48122,1.11912 -15.41447,2.42723c-3.77244,1.25462 -7.43298,3.235 -11.46258,3.65625c-18.25144,1.90801 -36.70074,0.32346 -55.05163,0.34375c-3.33549,0.00369 -6.87458,1.95825 -10.38587,2c-19.96412,0.23739 -27.8627,2.56837 -50.06452,6.64514c-6.92809,1.27216 -13.90595,2.29216 -20.79091,3.78016c-2.85464,0.61696 -6.90188,2.03109 -11.30802,3.25855c-2.96004,1.48209 -6.30089,2.31615 -9.83655,2.31615c-0.92311,0 -1.83293,-0.05686 -2.72617,-0.16725c-10.86389,-1.34268 -19.27383,-10.60559 -19.27383,-21.83275c0,-0.556 0.02063,-1.10719 0.06115,-1.65283c-0.01306,-1.53739 -0.13731,-3.08906 0.30689,-4.54327z" fill="#9a57ff"/><path d="M334.17922,357.5c3.65834,-0.07749 7.08027,-1.93709 10.82078,-2c5.66586,-0.0953 11.33414,-0.0953 17,0c12.42039,0.20891 22,9.04633 22,22c0,4.3917 -1.25861,8.90569 -3.4375,12.71875c-6.42867,11.25017 -21.90695,9.10674 -32.17663,9.28125c-2.37448,0.04035 -7.19133,1.47469 -8.76909,1.70067c-6.26396,0.89718 -14.9533,0.25867 -19.90846,0.29933c-1.89581,0.01556 -4.38693,1.4593 -6.27083,1.65625c-1.12559,0.11767 -2.39759,0.18385 -3.75861,0.18229c-0.87806,0.10659 -1.77206,0.16146 -2.67889,0.16146c-3.21222,0 -6.26364,-0.68844 -9.01477,-1.92581c-2.61658,-0.87649 -5.01805,-2.12611 -6.85089,-3.84896c-1.48913,-0.00655 -2.98822,-0.16302 -4.48248,-0.48457c-3.25627,-0.70072 -6.59391,-1.78134 -9.23978,-3.80462c-2.10294,-1.6081 -2.69241,-4.58704 -4.39028,-6.61818c-0.30851,-0.36908 -0.92928,-0.26754 -1.40768,-0.31786c-3.04575,-0.32038 -5.60177,-0.3324 -8.57114,-1.12896c-10.8258,-2.90413 -19.52429,-1.76829 -30.15239,-7.41314c-4.80856,-2.55395 -13.09008,-13.43636 -15.53076,-14.2262c-1.22012,-0.39486 -5.35191,0.91852 -6.18924,1.1948c-5.74892,1.89693 -12.30064,4.71059 -18.40043,4.71059c-30.86078,0 -64.67955,0 -95.54033,0c-2.44541,0 -4.88169,-1.12432 -7.24884,-1.13707c-9.59569,-0.05169 -19.19409,-0.2156 -28.7875,0c-1.64314,0.03692 -4.15,1.88806 -5.85771,2.34314c-4.27714,1.13978 -8.54869,2.38147 -12.63916,4.07294c-0.0007,0.00029 -0.0014,0.00058 -0.0021,0.00087c-3.08998,3.14526 -7.11807,5.36584 -11.63111,6.20856c-2.66241,0.70022 -5.42605,0.95472 -8.19556,0.49368c-1.13262,-0.18855 -2.30757,-0.55064 -3.48937,-1.05806c-1.20275,0.36377 -2.44902,0.62734 -3.7291,0.78098c-8.8315,2.26839 -18.92389,2.78411 -25.95679,4.08864c-5.1104,0.94793 -10.84917,3.56235 -15.92242,3.20633c-13.09909,-0.91924 -21.78758,-12.13264 -21.06097,-25.21167c0.18476,-3.32568 2.03619,-6.42577 3.84324,-9.22378c7.85831,-12.16771 24.74448,-11.45819 37.0907,-13.66594c5.87327,-1.05025 13.16343,-4.12199 19.35686,-3.03569c1.84144,0 3.63003,0.22624 5.3395,0.65244c6.89278,-4.3473 15.56935,-6.79057 23.98183,-9.40985c5.2152,-1.62378 9.98726,-4.21562 15.67867,-4.24259c11.41002,-0.05406 22.82039,0.04498 34.23044,0c2.58782,-0.0102 5.2553,0.99548 7.78857,1c29.663,0.05291 59.32643,0.14452 88.98912,0c3.18159,-0.0155 8.03633,-2.47251 10.82128,-3.42649c2.33105,-0.79849 5.98858,-0.74201 8.17872,-1.57351c9.45273,-3.58879 19.30365,-6.39687 28.99187,-1.25c5.0404,2.67771 9.34406,7.22665 12.3051,12.0466c1.80657,2.94072 2.40509,6.34551 5.80759,8.2034c0.46224,0.2524 10.86371,1.13975 13.22308,1.65686c4.2885,0.93994 8.66086,2.02222 13.05009,2.34314c8.73217,0.63846 15.46432,0.31396 22.83716,5.50279c1.17782,0.82891 3.53589,1.11559 4.49572,1.93471c2.53918,2.16697 4.43441,4.39457 5.88148,6.99725c7.08759,-0.54809 14.1522,-0.31979 19.57899,-0.43475z" fill="#5d349b"/><path d="M255,-50.5c0,-12.15026 9.84974,-22 22,-22c12.15026,0 22,9.84974 22,22c0,12.15026 -9.84974,22 -22,22c-12.15026,0 -22,-9.84974 -22,-22z" fill="#884de1"/><path d="M450.33956,393.93103c-8.64317,10.10727 -24.54932,9.03213 -32.84841,0.41686c-7.10037,-7.37088 -6.3401,-15.40611 -6.99265,-24.16195c-0.35268,-4.73228 -1.97722,-9.36676 -2,-14.17843c-0.04923,-10.39578 0.04466,-20.7919 0.00018,-31.1877c-1.56745,2.74068 -3.20076,5.49511 -4.00018,8.3812c-0.5411,1.95351 0.00403,6.17442 -0.34375,8.24401c-0.54087,3.21868 -1.69311,6.40078 -2.49568,9.55784c-3.04304,11.97046 0.34355,26.04142 -6.70268,37.11407c-3.18746,5.00886 -6.74296,10.21878 -13.2618,11.52255c-17.82595,3.56519 -29.11121,-8.53803 -27.82805,-25.21917c0.15855,-2.06107 1.40939,-3.92775 1.63195,-5.9829c0.86166,-7.95646 1.02102,-15.99595 2.34375,-23.86739c0.61687,-3.67093 2.20552,-7.48813 2.65625,-11.13261c0.49426,-3.99649 0.05203,-7.49129 1.12896,-11.3869c3.55706,-12.867 11.25781,-24.3465 16.14522,-36.78486c2.07845,-5.28961 3.18409,-11.0113 5.47581,-16.25813c0.985,-2.25511 2.62382,-4.72497 3.44219,-6.92084c0.43723,-3.29601 1.60417,-6.36162 3.33314,-9.02911c0.31741,-0.48971 0.65375,-0.96599 1.00801,-1.42783c8.65882,-17.71354 33.68672,-12.41372 48.74022,-12.62222c0.77047,-0.01067 4.19582,-4.21579 4.96688,-4.83264c4.13833,-3.31067 10.86309,-5.66417 15.9894,-5.30444c3.32264,0.23317 6.91357,0.61208 9.68497,2.45968c7.68648,5.12432 11.88843,13.52822 11.376,22.75199c-0.40663,7.31932 -4.23144,9.43842 -8.49902,13.75373c-4.08204,4.12768 -6.27244,9.56685 -11.79179,12.42168c-9.30287,4.81183 -24.34064,2.98694 -34.9561,2.69903c-2.88268,7.87126 -6.738,15.4363 -9.22282,21.40345c1.85254,-2.24822 3.52824,-4.85939 5.88054,-6.80004c7.21195,-5.94986 24.48594,-6.38098 33.27937,-6.55244c4.56781,-0.08907 4.88589,-2.5836 11.24884,-2.13707c13.09909,0.91924 21.78759,12.13264 21.06097,25.21167c-0.7025,12.64499 -14.32096,18.81178 -24.85331,20.58166c-1.82594,0.30683 -3.46758,0.37897 -5.20706,0.34375c-2.07638,-0.04204 -5.59648,-1.97769 -6.23044,0c-2.82079,8.79976 0.0634,19.61795 1.57277,28.68545c0.51943,3.12044 -0.10242,6.48765 0.65071,9.50015c0.50624,1.85213 0.77652,3.80171 0.77652,5.81441c0,2.60638 -0.45324,5.1069 -1.28521,7.42704c-0.73459,2.65069 -1.88393,5.16962 -3.87373,7.49648z" fill="#884de1"/><path d="M169,-27.5c0,-12.15026 9.84974,-22 22,-22c12.15026,0 22,9.84974 22,22c0,12.15027 -9.84974,22 -22,22c-12.15026,0 -22,-9.84974 -22,-22z" fill="#e0e0e0"/><path d="M479.77358,296.56863c1.65231,2.86621 4.91494,4.80842 6.47642,7.93138c1.93529,3.87057 2.76502,8.52321 2.75,12.76956c-0.04505,12.7434 0.03552,25.48701 0,38.23044c-0.00287,1.02943 0.53833,2.07536 0.2908,3.07459c-2.59488,10.47544 -11.4608,18.7031 -21.68043,21.83264c-11.06514,3.38846 -40.58033,1.06441 -42.2245,1.09276c-1.84331,0.03179 -3.55714,1.13897 -5.31128,1.2908c-8.95096,0.77474 -15.6008,-3.72938 -21.63709,-9.57205c-7.19775,-6.96688 -1.91674,-19.11621 -0.4375,-27.10462c0.98228,-5.30471 0.56494,-10.72974 1.34375,-16.05163c1.02623,-7.01258 2.93897,-13.6211 3.65625,-20.74093c1.02803,-10.20444 2.69769,-23.81116 9.55244,-32.11995c9.89328,-11.99185 17.88113,-9.70832 31.87745,-10.70162c3.42683,-0.2432 6.52023,-3.33996 9.71612,-6.25294c1.30829,-1.35951 2.78979,-2.55115 4.409,-3.53939c3.33441,-2.03508 7.25277,-3.20767 11.445,-3.20767c0.27655,0 0.55191,0.0051 0.82599,0.01522c4.66552,0.13845 7.82538,1.15347 10.22481,2.95746c6.5478,3.81108 10.94921,10.90519 10.94921,19.02732c1.65335,3.30606 -2.02676,10.91291 -4.19192,12.92057c-1.71,2.35278 -3.87489,4.35359 -6.36548,5.87322c-0.67156,0.65841 -2.13873,1.46004 -1.66902,2.27483z" fill="#e0e0e0"/><path d="M472.11217,392.20768c-9.05759,9.63238 -24.92389,7.87899 -32.83107,-1.14605c-1.16946,-1.33479 -2.11073,-2.88626 -2.87843,-4.55413c-0.97879,-1.91289 -1.68572,-3.98792 -2.06986,-6.17415c-0.36949,-1.5273 -0.66028,-3.05389 -0.90558,-4.51879c-0.82966,-4.9547 -0.3632,-10.50883 -0.42723,-15.29555c-0.14818,-11.07803 -4.55555,-23.08027 -1.2908,-34.0936c1.83036,-6.17455 4.61049,-11.25365 9.57205,-15.48791c3.89421,-3.32336 11.11056,-3.43117 15.72341,-4.59807c11.83084,-2.99282 29.87591,-7.00154 37.55784,6.44182c2.17889,3.81306 3.4375,8.32705 3.4375,12.71875c0,9.47481 -3.37998,14.74727 -11,19.25c-2.27746,1.34578 -4.99612,1.76466 -7.5625,2.40625c-1.11716,0.27929 -2.60977,-0.45683 -3.4375,0.34375c-0.86689,0.83846 0.93226,8.25248 1,9c0.45498,5.02099 -0.52614,10.19089 0.48368,15.23999c0.33808,1.53279 0.51632,3.12559 0.51632,4.76001c0,2.92156 -0.56949,5.71012 -1.60352,8.26072c-0.82252,2.63271 -2.08943,5.11278 -4.28432,7.44696z" fill="#4b2a7c"/><path d="M404,-86.5c0,-12.15027 9.84974,-22 22,-22c12.15026,0 22,9.84973 22,22c0,12.15027 -9.84974,22 -22,22c-12.15026,0 -22,-9.84973 -22,-22z" fill="#291743"/><path d="M248.6576,-7.62987c1.41383,-3.992 4.07075,-7.29908 7.40864,-9.89597c1.19628,-0.98018 2.49775,-1.83677 3.88488,-2.55025c5.26302,-2.90811 11.46031,-4.40588 17.04888,-4.42391c23.99987,-0.07739 48.0001,-0.06981 72,0c10.34574,0.03009 20.18048,4.72005 30.56349,5c5.01625,0.13525 18.20718,-0.81125 26.54778,0.22111c13.10531,1.62212 26.2785,3.53965 39.45222,3.77889c16.52828,0.30016 59.43651,-8.64397 59.43651,22c0,12.85368 -9.57856,21.89939 -22,22c-20.98054,0.16994 -38.83983,-0.68009 -59,-1c-7.54451,-0.11972 -15.01974,-2.79661 -22.56349,-3c-4.97396,-0.13411 -18.21247,0.81344 -26.54778,-0.22111c-5.35976,-0.66523 -10.90314,-1.2207 -16.20328,-2.20612c-3.35586,-0.62392 -8.22816,-2.54285 -11.86388,-2.57277c-22.24604,-0.18306 -44.49588,-0.32088 -66.74036,0c-0.35151,0.00507 -0.701,0.02837 -1.04889,0.06629c-2.7557,1.24235 -5.81328,1.93371 -9.03232,1.93371c-2.34262,0.11631 -4.12429,-0.19627 -5.82353,-0.77902c-2.26335,-0.6197 -4.38104,-1.5918 -6.29044,-2.85366c-1.20606,-0.55906 -2.4289,-1.35161 -3.11494,-2.49025c-4.1732,-4.00388 -6.77108,-9.63708 -6.77108,-15.87707c0,-0.79504 0.04217,-1.58024 0.1244,-2.35347c0.01869,-1.6284 -0.00323,-3.26178 0.5332,-4.7764z" fill="#291743"/><path d="M-7.34038,110.49265c1.73841,-2.39353 15.35248,-7.88424 19.90288,-8.6489c3.35142,-0.56318 6.02215,-0.23958 9.4185,-0.34375c7.33172,-0.22489 14.88103,-2.13707 22.24884,-2.13707c9.08636,0 19.07381,-0.17591 28.20006,-0.86293c2.45537,-0.18484 4.21852,-2.1405 6.41755,-2.92587c5.59117,-1.99684 11.5963,-3.92644 17.5424,-0.95339c11.71628,5.85814 17.14154,18.96527 11.44069,30.79453c-7.3891,15.33238 -28.55852,16.89408 -42.81152,17.08473c-2.37316,0.03175 -4.79976,1.13708 -7.24884,1.13708c-8.73835,0 -17.03817,0.69303 -25.75116,0.86292c-1.50477,0.02934 -6.51379,0.24517 -7.35099,1.11113c-0.62452,0.8402 -1.30756,1.63432 -2.04308,2.37633c-3.85496,3.88897 -9.15163,6.34647 -15.02195,6.50444c-2.08436,0.65499 -4.30244,1.00811 -6.60299,1.00811c-12.15026,0 -22,-9.84974 -22,-22c0,-7.94806 4.21479,-14.91171 10.53123,-18.7778c1.02912,-1.4194 2.09897,-2.8122 3.12839,-4.22955z" fill="#ad76ff"/><path d="M499.71875,160.9375c2.93403,2.09503 5.28032,5.15202 6.8802,8.55818c1.5351,3.00133 2.40105,6.4017 2.40105,10.00432c0.77091,45.66016 0.07079,91.33339 0,137c-0.00372,2.40388 -0.98248,4.83228 -1,7.17843c-0.18379,24.60651 0.10949,49.21463 0,73.82157c-0.01481,3.32774 -1.35494,8.63912 -2.75,11c-11.60755,19.64354 -41.15179,11.69661 -41.25,-11c-0.10962,-25.3331 -0.06992,-50.66676 0,-76c0.00662,-2.39965 0.99026,-4.83756 1,-7.17843c0.18695,-44.94013 -0.77005,-89.88765 0,-134.82157c0,-3.7263 0.92642,-7.23623 2.56151,-10.31203c1.86124,-4.08221 4.69135,-7.70226 8.34295,-8.68918c3.25741,-1.90623 7.04888,-2.9988 11.09553,-2.9988c2.76016,0 5.40161,0.50831 7.83583,1.43641c1.75813,0.3913 3.43043,0.96395 4.88292,2.00109z" fill="#ad76ff"/><path d="M323.40249,308.22105c0,-12.15026 9.84974,-22 22,-22c12.15026,0 22,9.84974 22,22c0,12.15026 -9.84974,22 -22,22c-12.15026,0 -22,-9.84974 -22,-22z" fill="#5d349b"/><path d="M-14.33046,-32.1662c0.13972,-0.90261 0.62799,-1.80152 1.07106,-2.57054c0.17544,-0.70408 0.38073,-1.39636 0.61444,-2.07541c-1.5825,-0.90949 -3.6477,-0.17833 -5.46388,-0.35995c-5.74921,-0.57492 -11.67044,-1.75405 -16.50577,-4.9776c-6.71767,-4.47845 -12.41522,-14.09923 -14.27558,-21.6183c-0.8486,-3.42982 0.3386,-7.72593 0.01475,-11.1499c-0.072,-0.76123 -0.63887,-1.50611 -0.45502,-2.2483c1.69211,-6.83097 5.52427,-13.03152 10.87734,-17.59989c3.3545,-2.86276 14.50055,-4.91979 18.46399,-4.90625c14.70263,0.05023 30.88888,-0.15576 45.5916,-0.15576c4.50116,0 9.87159,1.26778 13.89754,3.28076c0.56719,0.2836 1.0869,0.69834 1.62038,1.06774c6.03232,-2.1304 12.23236,-3.82704 18.4337,-5.37247c14.22446,-3.54488 28.73134,-5.28387 43.22075,-7.3176c5.764,0.55557 17.00783,1.62876 26.56167,2.5691c1.35694,-0.20966 2.71205,-0.43764 4.06466,-0.69147c4.16836,-0.78223 8.29635,-2.33115 12.59884,-2.3803c4.54801,-0.05195 13.22099,-0.57335 19.10997,0.34015c5.32934,0.82668 10.57028,2.44556 15.95909,2.65985c16.96357,0.67455 33.954,-0.04053 50.93094,0c1.16981,0.0028 2.35836,-0.61173 3.49385,-0.33046c1.81185,0.44881 8.45301,2.61537 10.48157,4.36732c2.43351,2.10167 4.91338,4.16968 7.11832,6.51001c0.32245,0.34225 -0.10042,1.40233 0.36805,1.36181c5.26665,-0.45558 10.99533,-2.89482 16.5382,-2.90868c14.99996,-0.03751 30.00048,-0.1198 45,0c4.07454,0.03254 7.81728,2.49314 11.86908,2.92425c2.95637,0.31455 5.95034,-0.28564 8.88837,-0.74069c13.30232,-2.06031 33.78094,-8.14001 48.24255,-7.18356c4.95072,0.32743 7.13129,0.82618 12.5,3.125c0.87902,0.37638 1.21524,1.84764 2.17106,1.875c22.40294,0.64131 44.94455,-1.93964 67.23519,0.39063c4.74252,0.49578 9.82909,2.4356 14.06505,4.66199c14.85723,7.80881 31.18706,16.47461 37.74578,33.0417c4.11826,10.40259 3.33631,20.24343 0.4503,29.96875c10.79292,1.70193 21.67253,3.10556 32.45206,4.72358c6.35163,0.95339 12.71586,1.82651 19.05462,2.86202c1.90267,0.31083 3.92638,0.33841 5.66287,1.1759l18.42406,3.83835c4.40532,0.82572 7.739,4.6921 7.739,9.3371c0,3.23236 -1.61432,6.08766 -4.08071,7.80367c5.33943,1.50983 10.67877,3.02001 16.01921,4.52628c7.62075,2.14944 15.145,4.67529 22.86104,6.45256c7.22204,1.66348 14.49848,3.08593 21.71531,4.77185l1.98515,-0.05436c0,0 9.5,0 9.5,9.5c0,9.5 -9.5,9.5 -9.5,9.5l-4.01485,-0.05436c-39.59825,-8.20313 -78.1674,-20.64862 -117.16271,-31.28346c-2.39349,-0.65277 -4.78722,-1.30473 -7.18111,-1.95614c-39.76434,-0.39814 -79.52694,-1.12801 -119.28807,-1.72807c-14.32004,-1.73843 -28.6389,-3.47471 -42.95572,-5.21904c-6.11109,0.20077 -12.15811,0.8813 -18.08705,2.41004c-3.54693,0.91455 -6.69701,2.32827 -10.31049,2.33105c-15.36884,0.01181 -32.23361,0.15576 -47.60246,0.15576c-1.73066,0 -3.78595,-0.20472 -6.02044,-0.53591c-6.50427,16.2133 -31.05061,12.4903 -45.92149,13.50636c-12.46795,0.85188 -37.95789,2.9388 -50.07724,4.80617c-5.11682,0.78841 -17.46035,4.13319 -25.94888,5.10543c-26.316,3.01411 -52.66388,5.15018 -79,8c-8.60733,0.9314 -21.00808,0.63822 -26.58015,1.0797c-6.66951,0.52844 -13.3758,1.12563 -19.90263,2.59599c-5.98819,1.34902 -11.94089,3.15689 -17.46979,5.82326c-1.62479,2.12156 -3.62716,3.93868 -5.90671,5.35094c-0.51112,0.43318 -1.05524,0.81638 -1.65495,1.1152c-2.5005,1.2459 -6.64768,2.57886 -9.62925,2.66949c-1.76303,0.0536 -3.41071,-0.32719 -4.97881,-1.00163c-6.64513,-1.4438 -12.1701,-5.89024 -15.08277,-11.84719c-1.54013,-1.06853 -1.1817,-1.88538 -1.4073,-3.69024c-0.53239,-1.89575 -0.81713,-3.8951 -0.81713,-5.96097c0,-1.65377 0.18248,-3.26494 0.52839,-4.81443c1.5715,-7.39461 6.49676,-13.27594 12.89221,-17.85996c-0.56855,-1.19246 -0.9206,-2.66919 -0.9206,-4.49797c0,-3.64408 1.39783,-5.89034 3.1211,-7.27496c-7.53925,-4.30512 -12.62109,-12.42161 -12.62109,-21.72504c0,-0.06787 0.00027,-0.13567 0.00081,-0.20341c-0.02472,-1.10131 -0.49985,-2.20144 -0.33127,-3.29045z" fill="#4b2a7c"/><path d="M281.84806,-124.21138c0,-13.80712 11.19288,-25 25,-25c13.80712,0 25,11.19288 25,25c0,13.80712 -11.19288,25 -25,25c-13.80712,0 -25,-11.19288 -25,-25z" fill="#4b2a7c"/><path d="M-26.48528,190.57841c-14.3235,0 -27.87772,-13.1681 -25,-28.003v0c0,-0.80208 0.03777,-1.59533 0.11163,-2.37808c-0.69555,-4.58775 -0.67421,-9.44332 -0.11163,-14.13843v0c0,-2.01485 0.23835,-3.97403 0.6884,-5.85087c-1.0983,-3.32942 -1.41012,-6.94512 -0.6884,-10.66565v0c0,-0.50412 0.01492,-1.00476 0.04434,-1.5015c-0.02943,-0.49674 -0.04434,-0.99737 -0.04434,-1.5015c0,-2.73436 0.43899,-5.3662 1.25032,-7.82887c-1.84969,-6.42575 -2.02793,-13.79635 -1.25032,-20.69966v0c0,-1.81305 0.193,-3.58102 0.55957,-5.28449c-0.99517,-4.04833 -1.20143,-8.40071 -0.55957,-12.73353c0,-0.90991 0.04861,-1.80848 0.14338,-2.69323c-0.62311,-2.97984 -0.7048,-6.12606 -0.14338,-9.31878c0,-2.07043 0.25169,-4.08207 0.72613,-6.00601c-0.47444,-1.92394 -0.72613,-3.93557 -0.72613,-6.00601c0,-5.13377 1.54742,-9.90613 4.20129,-13.87608c-1.9008,-4.08979 -2.69949,-8.85725 -2.24391,-13.96889c-2.19777,-3.72102 -3.45888,-8.06102 -3.45888,-12.69557c0,-5.58658 1.83244,-10.74518 4.92904,-14.90752c-0.27878,-1.49479 -0.42453,-3.03637 -0.42453,-4.61199c0,-13.80712 11.19288,-25 25,-25c13.80712,0 25,11.19288 25,25c0,4.89992 -1.40965,9.4706 -3.84555,13.32861c0.24011,0.38202 0.48016,0.78116 0.72055,1.19842c5.36273,9.30855 4.02089,24.1601 -2.52866,34.31792c1.69586,3.37288 2.65066,7.1825 2.65066,11.21512c0,1.86664 -0.20457,3.68549 -0.59253,5.43536c1.36628,4.62771 1.51708,9.52805 0.60198,14.17546c1.28512,5.61637 1.05459,11.65359 -0.56067,17.18568c0.36116,1.69146 0.55122,3.4463 0.55122,5.24554c0.77762,6.90332 0.59937,14.27392 -1.25032,20.69966c0.70186,2.13039 1.12508,4.38738 1.22651,6.72782c0.88129,4.67087 0.52357,9.47351 -0.8913,13.89478c0.59633,2.13998 0.91512,4.39566 0.91512,6.72578c0.51144,4.26836 0.57557,8.66934 0.06039,12.88114c2.5968,15.21335 -7.83988,31.63839 -25.06039,31.63839z" fill="#4b2a7c"/><path d="M45.5868,359.79763c4.99056,0 10.1201,1.43023 14.45313,3.90625c7.05568,4.03181 10.2878,13.52373 10.54687,21.09375c0.09981,2.91627 -0.39932,5.84804 -0.12456,8.75306c0.072,0.76123 0.63886,1.50611 0.45501,2.2483c-2.05923,8.31302 -6.7811,14.89817 -14.15012,18.86683c-0.59696,0.3215 -1.25554,0.64282 -1.96461,0.95655c-3.6129,2.02789 -7.78077,3.18427 -12.21873,3.18427c-0.12052,0 -0.24085,-0.00085 -0.36096,-0.00255c-1.80364,0.12862 -3.5951,0.09645 -5.29519,-0.14925c-2.9917,0.63079 -6.15182,0.71573 -9.35886,0.15179c-4.14013,0 -8.0452,-1.00638 -11.48393,-2.78786c-7.24555,0.3181 -14.76021,-1.15792 -20.94651,-4.10092c-2.10509,0.57551 -4.32096,0.88277 -6.6086,0.88277c-13.80712,0 -25,-11.19288 -25,-25c0,-0.25113 0.00371,-0.5014 0.01106,-0.75075c-0.00735,-0.24935 -0.01106,-0.49962 -0.01106,-0.75075c0,-0.19539 0.00224,-0.39025 0.0067,-0.58457c-7.7291,-5.40562 -12.27488,-14.94535 -10.51721,-24.94096c0,-1.0163 0.06065,-2.01845 0.17851,-3.003c-0.11787,-0.98456 -0.17851,-1.9867 -0.17851,-3.003c0,-0.84307 0.04173,-1.67639 0.12324,-2.49801c-0.91313,-5.91724 -0.35351,-12.54285 1.38116,-17.97907c-0.50476,-2.5761 -0.53959,-5.28479 -0.0029,-8.05145c0,-0.50412 0.01492,-1.00476 0.04435,-1.5015c-0.00527,-0.08884 -0.01006,-0.17782 -0.0144,-0.26691c-0.51754,-2.80784 -0.55528,-5.75461 -0.02996,-8.7421c0,-2.07043 0.25169,-4.08207 0.72613,-6.006c-0.36061,-1.46233 -0.59253,-2.97535 -0.68306,-4.52632c-0.0613,-0.12016 -0.1219,-0.24018 -0.18182,-0.36002l-2.86424,-11.63018c0.01025,-1.35534 0.12798,-2.70873 0.34734,-4.04563c-0.80268,-3.49805 -0.94998,-7.22177 -0.34734,-10.96938c0,-1.15621 0.07849,-2.2941 0.23043,-3.40861c-0.73644,-4.25257 -0.78937,-8.74032 -0.23043,-13.1079v0c0,-1.39668 0.11453,-2.7666 0.33472,-4.10089c-0.79158,-3.482 -0.93418,-7.18624 -0.33472,-10.91412c0,-1.53788 0.13886,-3.04334 0.40473,-4.5045c-0.26587,-1.46116 -0.40473,-2.96662 -0.40473,-4.5045c0,-0.9587 0.05396,-1.90479 0.15902,-2.8354c-4.89201,-5.1575 -7.61534,-12.21063 -6.16502,-19.68712v0c0,-3.1421 0.57966,-6.14882 1.63789,-8.91904c-0.13182,-1.07149 -0.2184,-2.14603 -0.29215,-3.19693c-0.23311,-3.32178 1.07744,-6.57404 1.75029,-9.8353c0.65769,-3.18774 1.01743,-6.40456 1.58361,-9.55191c0.26156,-2.20612 0.81038,-4.32418 1.60803,-6.31571c0.91338,-2.53599 2.21852,-4.97468 4.21809,-7.25693c0.75165,-0.85791 1.62218,-1.5898 2.54031,-2.27122c1.29462,-1.13318 2.70719,-2.13492 4.2169,-2.98439c1.18312,-0.92021 2.60637,-1.7424 4.1019,-1.84211c2.55157,-0.87818 5.28992,-1.35498 8.13964,-1.35498c6.67418,0 12.7375,2.61536 17.22103,6.87713c2.80001,2.04488 4.95708,5.02209 6.68062,10.15565c0.75768,2.25672 1.05592,4.51409 1.07013,6.76874c0.01875,0.39713 0.02822,0.7967 0.02822,1.19848c0,2.13676 -0.26807,4.21092 -0.77241,6.19066c-0.22422,1.26634 -0.47775,2.53065 -0.72908,3.79233c-0.737,3.69962 -1.22794,7.24861 -2.0419,10.58757c0.64275,0.87277 1.28011,1.85493 1.9199,2.96547c0.73479,1.27543 1.26434,2.64506 1.66656,4.0658c0.94413,2.63494 1.45845,5.47451 1.45845,8.4342c0.54903,3.99814 0.48836,8.05542 -0.19113,11.90844c0.12616,1.01782 0.19113,2.05461 0.19113,3.10657c0,1.21549 -0.08675,2.41071 -0.25438,3.57982c1.36446,5.2832 1.2686,10.91624 -0.11576,16.13419c0.24331,1.40015 0.37014,2.84027 0.37014,4.31001c0.50818,3.97092 0.51057,8.04116 -0.04664,11.94368c1.00896,4.44344 1.00512,9.10232 0.08868,13.53058c1.03369,2.81653 1.62338,5.73442 1.66569,8.60374c0.84007,2.50145 1.29528,5.17958 1.29528,7.96404c0,1.86663 -0.20457,3.68549 -0.59253,5.43536c1.31908,4.46786 1.50522,9.18984 0.69299,13.69298c0.60485,3.74467 0.42331,7.55702 -0.45165,11.17463c0.18405,1.17103 0.25783,2.32609 0.25127,3.48256c0.06614,0.74133 0.09992,1.49198 0.09992,2.25051c0,3.00437 -0.52996,5.88497 -1.5015,8.5534c-0.15589,0.93534 -0.2463,1.76218 -0.30864,2.522c0.20315,1.28333 0.30864,2.59915 0.30864,3.93961c0,0.52964 -0.01647,1.05543 -0.04893,1.57689c0.33708,1.58902 0.53779,3.19999 0.60792,4.81259c0.54573,0.09181 1.08161,0.20569 1.61039,0.33803c4.12071,0.51727 7.92941,2.0375 11.17395,4.30854c1.9103,0.71193 4.12568,-0.10382 6.10346,0.39063c1.57904,0.39476 3.0944,0.8512 4.53715,1.37624c4.48311,-5.34557 10.02445,-7.77287 18.58364,-7.77287z" fill="#4b2a7c"/></g></g></svg>